<?xml version="1.0" standalone="no"?>
<!DOCTYPE svg PUBLIC "-//W3C//DTD SVG 20010904//EN"
 "http://www.w3.org/TR/2001/REC-SVG-20010904/DTD/svg10.dtd">
<svg version="1.0" xmlns="http://www.w3.org/2000/svg"
 width="4167.000000pt" height="4167.000000pt" viewBox="0 0 4167.000000 4167.000000"
 preserveAspectRatio="xMidYMid meet">

<g transform="translate(0.000000,4167.000000) scale(0.100000,-0.100000)"
fill="#000000" stroke="none">
<path d="M2 31458 c0 -5617 5 -10103 9 -9969 118 3770 1244 7406 3277 10576
1177 1836 2662 3504 4352 4887 2264 1853 4872 3201 7685 3973 2449 672 5065
888 7625 630 3981 -402 7746 -1941 10881 -4446 932 -746 1796 -1565 2585
-2455 2534 -2855 4230 -6333 4909 -10064 149 -821 248 -1637 300 -2470 48
-791 48 -1788 0 -2580 -229 -3703 -1418 -7222 -3480 -10300 -2192 -3272 -5269
-5859 -8872 -7461 -1726 -767 -3582 -1301 -5458 -1569 -779 -111 -1485 -172
-2345 -203 -41 -2 4487 -4 10063 -5 l10137 -2 0 20835 0 20835 -20835 0
-20835 0 2 -10212z"/>
<path d="M20025 41479 c-2399 -95 -4726 -594 -6930 -1484 -1657 -669 -3244
-1566 -4669 -2639 -2421 -1823 -4396 -4126 -5831 -6801 -236 -440 -557 -1109
-766 -1598 -847 -1975 -1378 -4076 -1573 -6227 -56 -616 -75 -1002 -83 -1675
-10 -963 33 -1773 143 -2700 639 -5386 3395 -10311 7672 -13713 2831 -2251
6230 -3728 9784 -4251 1057 -156 1969 -222 3068 -221 603 0 908 10 1440 46
5434 370 10503 2891 14115 7019 921 1052 1768 2248 2448 3456 1993 3541 2885
7527 2602 11619 -224 3224 -1222 6381 -2898 9165 -1586 2635 -3759 4902 -6327
6600 -2717 1796 -5790 2915 -9025 3285 -502 57 -1064 99 -1600 120 -297 11
-1272 11 -1570 -1z m-15310 -16529 c92 -15 197 -71 274 -149 52 -51 288 -390
1051 -1503 l984 -1438 38 0 38 0 2 1448 3 1447 25 48 c29 57 76 102 139 131
45 21 58 21 789 24 l742 3 0 -2711 0 -2710 -799 0 c-492 0 -819 4 -852 10 -87
16 -171 64 -253 143 -65 63 -203 259 -1047 1492 -534 781 -978 1428 -987 1438
-9 10 -29 17 -48 17 l-34 0 -2 -1447 -3 -1448 -22 -41 c-36 -67 -70 -101 -131
-131 l-57 -28 -742 -3 -743 -3 0 2711 0 2710 788 0 c463 0 812 -4 847 -10z
m10500 -545 l0 -550 -28 -57 c-30 -61 -64 -95 -131 -131 l-41 -22 -1678 -3
-1678 -2 3 -243 c3 -273 9 -296 83 -369 80 -79 -41 -72 1365 -78 l1255 -5 3
-657 2 -658 -1238 0 c-1409 0 -1296 7 -1389 -85 -78 -79 -83 -104 -83 -422 l0
-263 1673 -2 1672 -3 46 -21 c58 -27 116 -85 143 -143 21 -45 21 -56 21 -596
l0 -550 -2627 -3 -2628 -2 0 2710 0 2710 2628 -2 2627 -3 0 -550z m5778 533
c62 -28 111 -73 143 -130 l29 -53 3 -557 3 -558 -1585 0 c-1558 0 -1586 0
-1638 -20 -58 -21 -123 -81 -154 -140 -17 -32 -19 -68 -22 -437 l-3 -403 1243
-2 1243 -3 50 -23 c65 -30 112 -75 141 -137 l24 -50 0 -552 0 -553 -1252 -2
c-1200 -3 -1254 -4 -1288 -22 -49 -26 -108 -84 -133 -131 -22 -40 -22 -41 -25
-833 l-2 -793 -743 3 -742 3 -50 23 c-61 28 -98 62 -133 122 l-27 45 -3 2613
-2 2612 2442 -2 c2294 -3 2445 -4 2481 -20z m6207 -516 c0 -626 2 -612 -84
-698 -92 -91 67 -84 -1819 -84 l-1659 0 4 -237 c3 -223 4 -241 26 -288 30 -65
75 -112 137 -141 l50 -24 1248 0 1247 0 0 -660 0 -660 -1252 -2 -1253 -3 -41
-22 c-67 -36 -101 -70 -131 -131 l-28 -57 -3 -277 -4 -278 1679 -2 1678 -3 54
-30 c29 -16 69 -47 87 -69 63 -74 64 -81 64 -678 l0 -538 -2630 0 -2630 0 0
2703 c0 1487 3 2707 7 2710 3 4 1187 7 2630 7 l2623 0 0 -538z m2552 -1409 l3
-1948 27 -51 c15 -29 46 -68 69 -87 83 -72 -29 -67 1601 -67 l1468 0 0 -543
c0 -603 1 -598 -66 -675 -19 -23 -60 -53 -92 -69 l-57 -28 -2328 -3 -2327 -2
2 2607 3 2608 23 42 c44 84 116 139 201 153 25 4 367 8 758 9 l713 1 2 -1947z
m4228 1923 c92 -30 172 -78 235 -141 50 -50 156 -217 655 -1033 l595 -972 40
2 40 3 587 960 c350 573 607 983 637 1016 62 70 143 124 235 158 l71 26 680 0
680 0 48 -24 c83 -41 124 -131 93 -205 -8 -20 -499 -792 -1089 -1714 -591
-922 -1088 -1699 -1106 -1726 l-31 -50 0 -848 0 -848 -847 2 -848 3 -3 852 -2
852 -1106 1726 c-608 950 -1110 1740 -1116 1757 -33 95 41 197 160 218 26 5
337 7 692 6 591 -2 650 -3 700 -20z m-22740 -7266 c619 -36 1109 -205 1445
-498 185 -161 317 -374 361 -582 19 -89 18 -264 -2 -351 l-16 -70 -521 3
c-463 3 -527 6 -566 21 -74 29 -137 83 -191 165 -79 119 -141 177 -245 227
-154 76 -232 90 -495 90 -238 0 -306 -8 -434 -51 -163 -56 -258 -151 -273
-273 -12 -104 56 -181 212 -242 133 -52 254 -76 890 -175 399 -62 649 -118
885 -199 621 -213 920 -575 921 -1113 0 -210 -34 -353 -125 -529 -62 -118
-126 -201 -243 -314 -329 -315 -842 -495 -1538 -540 -303 -20 -709 -1 -1002
46 -478 77 -894 256 -1147 496 -278 263 -402 602 -342 939 l11 65 530 0 c499
0 533 -1 580 -19 66 -26 142 -99 211 -204 77 -117 140 -175 250 -228 211 -103
603 -140 929 -89 243 38 419 134 481 260 37 76 32 157 -13 212 -89 111 -261
162 -863 254 -179 28 -386 61 -460 75 -711 130 -1112 318 -1352 634 -214 281
-259 731 -109 1091 103 249 344 490 631 634 409 204 986 300 1600 265z m9509
-16 c981 -101 1663 -595 1925 -1394 53 -162 80 -285 100 -451 51 -422 16 -812
-105 -1182 -42 -129 -176 -394 -256 -507 -79 -109 -246 -286 -349 -370 -343
-275 -774 -437 -1339 -502 -147 -16 -637 -16 -785 1 -823 93 -1406 417 -1751
971 -279 449 -383 1092 -278 1713 111 655 486 1170 1058 1457 340 170 696 254
1196 284 108 6 437 -5 584 -20z m-3273 -109 c31 -9 63 -28 86 -52 69 -71 68
-64 68 -538 l0 -425 -655 0 c-626 0 -658 -1 -693 -19 -48 -25 -87 -66 -106
-113 -14 -33 -16 -204 -16 -1543 l0 -1505 -566 0 c-396 0 -578 3 -605 11 -52
16 -108 64 -130 113 -18 39 -19 104 -19 1549 l0 1507 -625 0 c-406 0 -641 4
-674 11 -67 14 -123 57 -152 116 -24 48 -24 49 -27 462 -2 227 -1 420 2 427 8
22 4040 21 4112 -1z m8679 4 c781 -47 1355 -349 1597 -839 87 -178 123 -356
115 -573 -6 -161 -21 -234 -77 -353 -52 -113 -104 -186 -196 -275 -124 -120
-283 -215 -456 -273 -66 -22 -73 -27 -75 -53 -2 -24 5 -33 53 -63 130 -81 332
-314 461 -532 34 -57 177 -314 319 -573 281 -513 286 -526 244 -593 -11 -19
-39 -42 -63 -52 -40 -19 -71 -20 -562 -20 -564 0 -614 4 -700 55 -24 13 -60
44 -82 69 -21 24 -163 272 -317 552 -153 280 -292 529 -309 553 -47 69 -107
122 -173 153 -115 54 -157 58 -646 58 l-448 0 0 -720 0 -720 -660 0 -660 0 0
2105 0 2105 1248 -1 c686 -1 1310 -5 1387 -10z m6630 -424 c0 -401 -1 -432
-19 -465 -26 -49 -55 -79 -101 -103 l-40 -22 -1304 -3 -1303 -2 4 -188 c3
-177 5 -189 28 -232 30 -54 93 -99 151 -111 24 -4 468 -8 987 -9 l942 0 0
-510 0 -510 -973 0 -973 0 -54 -32 c-41 -25 -60 -45 -80 -83 -25 -48 -25 -54
-25 -265 l0 -215 1311 -5 1310 -5 42 -27 c22 -15 54 -49 69 -75 l28 -48 3
-432 3 -433 -2046 0 -2045 0 0 2105 0 2105 2043 -2 2042 -3 0 -430z"/>
<path d="M20102 16666 c-419 -80 -689 -339 -797 -766 -38 -150 -48 -251 -48
-450 0 -348 68 -606 213 -820 222 -326 663 -474 1135 -379 189 38 338 114 466
236 162 155 257 339 310 600 27 135 38 463 19 609 -54 433 -243 731 -557 881
-156 74 -255 95 -478 99 -132 2 -212 -1 -263 -10z"/>
<path d="M24840 16169 l0 -421 608 5 c665 4 679 6 808 66 82 38 127 74 169
136 48 70 68 151 63 244 -11 191 -146 330 -366 376 -61 12 -173 15 -678 15
l-604 0 0 -421z"/>
<path d="M2 10208 l-2 -10208 10138 2 c5575 0 10045 5 9932 9 -4843 182 -9368
1988 -13015 5194 -439 386 -1168 1098 -1541 1505 -1339 1464 -2416 3017 -3283
4735 -1370 2713 -2124 5675 -2220 8721 -4 137 -9 -4344 -9 -9958z"/>
</g>
</svg>
